<?xml version="1.0" encoding="UTF-8"?>
<!DOCTYPE svg PUBLIC "-//W3C//DTD SVG 1.1//EN" "http://www.w3.org/Graphics/SVG/1.1/DTD/svg11.dtd">
<!-- Creator: CorelDRAW X7 -->
<svg xmlns="http://www.w3.org/2000/svg" xml:space="preserve" width="16.5354in" height="11.6929in" version="1.1" style="shape-rendering:geometricPrecision; text-rendering:geometricPrecision; image-rendering:optimizeQuality; fill-rule:evenodd; clip-rule:evenodd"
viewBox="0 0 16535 11693"
 xmlns:xlink="http://www.w3.org/1999/xlink">
 <defs>
  <style type="text/css">
   <![CDATA[
    .fil0 {fill:black}
   ]]>
  </style>
 </defs>
 <g id="Layer_x0020_1">
  <metadata id="CorelCorpID_0Corel-Layer"/>
  <g id="_2766183417136">
   <path class="fil0" d="M7019 4588l0 -35c23,16 19,13 0,35zm-354 -35c13,-29 13,-61 0,-89 23,5 26,8 44,18l0 115c-41,8 -61,11 -62,-44l18 0zm141 35l17 -19c1,-1 3,-4 3,-5l7 -11c-1,56 -21,53 -62,44l1 -140c10,-38 30,-30 30,-30l11 0c101,9 91,-67 91,179 -54,-5 -36,-20 -36,-160 -57,16 -4,16 -62,0l3 105c0,4 -2,27 -3,37zm-141 -124c-8,-13 -18,-28 3,-39 15,-9 27,3 59,4l0 26c-39,-1 -28,-6 -62,-9l0 18zm921 62c0,30 8,130 -80,53 -28,11 -13,-19 -18,27l-26 0c-5,-13 -17,-60 5,-69 10,-4 10,-2 21,-2 5,52 71,69 71,26 0,-41 -57,-35 -87,-64 -70,-70 114,-118 114,-33 0,32 -22,27 -53,27 7,-30 15,-13 26,-45 -26,-12 -24,-9 -62,-9 -11,51 -12,66 89,89zm-567 62c-30,26 -16,18 -53,9 0,-179 -16,-84 -18,-160 56,-29 32,-10 87,-12 26,-1 8,-9 49,0 5,2 12,5 16,6l13 5c0,0 2,1 3,1 -26,37 8,8 -67,7 -45,-1 -51,-5 -83,2l0 27c148,-12 133,-30 133,133 -82,-7 -9,-96 -36,-124 -29,-14 -54,-22 -62,18l18 88zm230 -142c20,29 15,20 45,36l0 106c-175,41 -115,-14 -137,-104 -9,-38 -15,-2 -11,-38 4,-37 37,-17 77,-17 -26,48 -9,19 -71,17 34,52 44,-1 44,89 68,0 73,5 64,-36 -10,-49 -16,-15 -20,-62 61,-28 96,-20 151,9l0 160c-49,-4 -26,3 -26,-98 1,-88 -54,-93 -116,-62zm-886 107l18 0c0,46 0,13 -9,26l-9 9c-26,23 -12,16 -44,9l0 -98 35 -9c-7,-26 -32,-40 -10,-62 15,-15 34,1 73,1 -26,48 -9,19 -71,17 20,31 55,45 88,62l0 80c102,-2 20,-124 18,-151 61,-29 98,-19 151,9l0 160 -27 0c0,-75 32,-231 -115,-160 14,19 25,23 44,36l0 106c-38,18 -68,18 -106,0 0,-67 18,-87 -44,-89 0,36 -3,29 8,54zm656 -178c-38,-3 -45,-4 -53,-35 39,-54 61,-13 99,-13 32,0 49,-37 37,1 -14,45 -66,4 -110,3 6,52 -4,3 27,44zm-106 -88c85,2 31,80 0,80 -43,0 -58,4 -62,-45 23,-11 9,-8 44,-9 -6,27 -11,22 0,45l35 -18c0,-26 1,-12 -5,-30l-12 -23zm-798 248c0,77 116,125 182,147 166,54 408,42 581,23l486 -29c41,-1 84,3 124,1 44,-3 68,-10 124,-9 171,1 327,-10 505,-9 85,0 154,-9 248,-9l1232 9c70,0 100,9 168,9 123,-1 215,-9 337,-9 121,0 532,-33 636,-46 150,-18 471,-65 533,-158 -37,1 -79,15 -119,23 -291,58 -695,75 -997,75l-849 -37c-132,-14 -269,-21 -404,-39l-404 -48c-230,-26 -537,-80 -775,-119 -406,-68 -1052,-162 -1447,4 -75,32 -161,170 -161,221z"/>
   <path class="fil0" d="M6983 4987c0,78 27,109 62,150 -43,66 -132,122 -132,310 0,168 163,284 265,284 97,0 165,-71 186,-71 115,0 250,210 548,-91 31,-32 75,-90 94,-135 47,-110 49,-132 49,-244 0,-55 -52,-83 -96,-98 -18,-7 -57,-17 -73,-25 -26,-15 -45,-54 1,-54 148,0 150,-14 142,89 48,0 47,3 64,-34 33,-73 78,-160 78,-232 -80,-18 -190,-9 -275,-9 -29,0 -30,24 -40,49 -10,27 -15,35 -26,63 -16,40 -99,227 -100,253 -2,64 64,46 113,69 227,106 -53,471 -236,360 -62,-37 -77,-189 -67,-237 30,-137 124,-239 134,-282 -111,0 -128,-42 -150,-89 142,0 173,-19 150,80l54 0c12,-23 97,-205 97,-221 0,-21 -3,-11 -9,-36 -92,-21 -229,-9 -336,-9 -17,72 -101,177 -94,218 5,29 22,54 58,57 -22,84 -124,72 -124,363 0,51 14,63 18,106 -12,46 -204,160 -204,-150 0,-112 132,-246 142,-284 -24,0 -177,-29 -177,-71 0,-55 9,-74 71,-88 8,36 9,88 53,88 134,0 191,-239 -18,-239 -52,0 -109,22 -139,47 -23,18 -83,81 -83,113z"/>
   <path class="fil0" d="M8392 5580c0,-67 6,-49 9,-88 1,1 3,2 3,5 1,3 3,5 3,6 39,66 43,34 62,81 20,51 -5,80 -59,85 -11,-23 -18,-54 -18,-89zm27 -115l-5 19 5 -19zm8 -18l-8 18 8 -18zm0 0c5,-51 126,-192 133,-195 1,0 160,-4 132,131 -19,90 -63,124 -13,238 25,59 104,106 182,110 181,9 304,-24 411,-166 62,-84 177,-338 70,-430 -47,-42 -138,-46 -166,-82 -34,-46 46,-41 75,-40 46,0 55,6 89,9 8,36 17,43 0,80l62 0 83 -183c61,-122 -80,-83 -296,-83l-91 192c-18,36 -26,61 -45,97 -27,53 -29,47 -14,110 48,23 145,5 189,85 38,69 7,150 -35,211 -40,58 -78,102 -172,103 -153,1 -208,-50 -141,-221 36,-91 176,-150 -9,-241 -136,-66 -368,-40 -399,-159 40,0 113,-4 150,1 23,3 39,10 50,30 14,25 6,28 3,58l54 0c20,-39 39,-84 59,-127 19,-41 61,-112 16,-135 -21,-10 -334,-4 -385,-4 -31,132 -144,166 -54,284 17,23 6,18 36,26 -44,66 -110,93 -158,267 -29,105 -18,294 105,308 133,15 233,-59 274,-158 49,-116 -3,-217 -195,-116z"/>
   <path class="fil0" d="M10491 5031c0,32 0,74 62,80 -16,24 -28,30 -48,58 -159,230 -78,562 199,562 143,0 276,-81 349,-182 72,-99 85,-40 120,-85 8,-10 23,-61 27,-79l-53 0c26,-54 53,-184 11,-241 -22,-30 -61,-40 -100,-51 -73,-21 -78,-30 -79,-71 78,0 103,-6 168,9 12,52 4,21 0,71 57,0 45,21 92,-94 19,-46 47,-87 59,-136 -11,-16 -20,-36 -45,-36 -275,0 -252,-24 -291,72 -13,32 -24,61 -39,93 -50,107 -133,238 -24,251 39,5 51,5 79,19 43,23 66,60 72,123 -75,-6 -177,-42 -231,-71 -21,31 -88,136 -97,169 54,4 59,24 133,26 69,3 77,17 150,0 -83,124 -245,161 -312,82 -119,-143 32,-389 100,-489 -64,-2 -145,-23 -160,-89 142,0 174,-19 151,80l53 0c20,-39 97,-194 97,-230 0,-28 -26,-36 -53,-36 -339,0 -279,-26 -336,89 -9,16 -54,94 -54,106z"/>
   <path class="fil0" d="M9845 5190c170,0 184,-21 257,27 38,25 50,34 72,78 77,150 -58,418 -193,211 -24,-37 -36,-56 -56,-94 -54,12 -86,58 -133,62 3,-44 45,-101 67,-136 40,-65 14,-94 -14,-148zm0 0l-19 -4 19 4zm-53 -17c45,0 14,0 26,9 -47,0 -13,0 -26,-9zm0 0c-77,0 -195,-5 -195,150 38,-18 37,-17 71,0 -5,51 -77,125 -110,228 -23,74 6,86 41,116 37,32 41,62 104,64 72,-21 73,-222 203,-44 36,49 67,48 139,31 56,-13 86,-48 121,-82 204,-206 210,-502 42,-516 55,-39 65,-9 101,-103 12,-29 21,-50 32,-75 57,-124 -46,-88 -213,-88l-71 168c-29,49 -76,94 -141,80 -10,-48 17,-89 44,-142 147,-288 -140,-308 -222,-186 15,63 51,73 12,162 -49,114 -44,65 -82,122 10,15 11,14 23,29 35,43 25,42 78,73 2,1 4,2 6,3l17 10z"/>
   <path class="fil0" d="M6691 4792c32,47 52,39 18,115 -4,9 -6,12 -11,24l-16 29c-2,-95 -64,-89 -159,-88 -86,0 -171,0 -257,0 -29,110 -164,197 -35,265 -14,20 -27,33 -41,57 -45,75 -65,143 -75,235 -13,105 15,302 98,302 46,0 65,-109 124,-112 50,-2 76,80 124,112 59,-5 114,-23 148,-55 226,-213 268,-539 118,-539 -46,0 -158,57 -74,198 41,70 88,56 15,186 -40,72 -114,87 -178,-5 -20,-28 -42,-79 -65,-95 -31,8 -73,45 -106,62 0,-101 40,-190 87,-268 21,-35 39,-53 46,-78 -79,-18 -116,-23 -151,-88l346 0c55,12 5,71 44,71 126,0 268,-292 202,-361 -53,-56 -111,-15 -202,33z"/>
   <path class="fil0" d="M9526 6191c0,38 7,63 23,93 19,33 34,33 65,49 26,-38 129,-124 186,-124 40,0 35,9 80,9 13,-19 20,-26 27,-53 -26,-38 -21,-44 -80,-44 -61,0 -113,47 -142,79 0,-31 -2,-38 6,-65 32,-107 185,-118 240,-57 49,54 45,116 17,181 -15,33 -32,41 -41,74 38,9 51,7 105,-72 23,-34 52,-85 60,-135 15,-97 -62,-200 -192,-200 -106,0 -166,-2 -263,82 -39,33 -91,116 -91,183z"/>
   <path class="fil0" d="M6248 6032c24,28 28,34 71,44 -13,-35 -49,-27 0,-62 70,51 -71,127 -71,222 0,39 47,62 98,62 43,0 34,-57 88,-71 22,14 37,33 45,62 137,-3 245,-287 192,-325 -14,-11 1,-6 -13,-6l-117 47c19,30 51,48 50,97 -1,48 -32,70 -42,107 -32,-24 -17,-41 -62,-71 -39,9 -35,11 -57,41 -28,38 -25,39 -49,48 13,-54 106,-170 106,-195 0,-100 -206,-140 -239,0z"/>
   <path class="fil0" d="M7267 4561c-24,-13 -31,-8 -71,-8 4,48 45,58 71,8z"/>
   <path class="fil0" d="M6363 4588l9 -9c-3,-17 -2,-15 -9,-26 -11,9 -10,-15 -7,17 1,20 0,8 7,18z"/>
   <path class="fil0" d="M6665 4553c-16,33 -17,16 8,35 0,-5 1,-14 0,-17 -5,-16 -3,-10 -8,-18z"/>
  </g>
 </g>
</svg>
